PathFileType	4	(X/Y/Z)	E:\Qualisys_Data\Carbon_Farble_Plate\Data\Amateur_Runner\S14\T1\S14T1V25_c3d.trc
DataRate	CameraRate	NumFrames	NumMarkers	Units	OrigDataRate	OrigDataStartFrame	OrigNumFrames
200.000000	200.000000	4	39	mm	200.000000	113	303
Frame#	Time	LSHO			RSHO			LICST			RICST			LASIS			LHEEL			RASIS			LTROC			RTROC			SACR			LTH1			LSK4			LTH2			LTH3			RHM5			LSK2			LTH4			RTH1			LTOE			RTH2			RTH3			RTH4			LLEP			RLEP			LSK1			LSK3			RSK1			LHM5			RSK2			LFT1			RSK3			RSK4			LLME			RLME			RTOE			RHEEL			RFT1			RFT2			LFT2			
		X1	Y1	Z1	X2	Y2	Z2	X3	Y3	Z3	X4	Y4	Z4	X5	Y5	Z5	X6	Y6	Z6	X7	Y7	Z7	X8	Y8	Z8	X9	Y9	Z9	X10	Y10	Z10	X11	Y11	Z11	X12	Y12	Z12	X13	Y13	Z13	X14	Y14	Z14	X15	Y15	Z15	X16	Y16	Z16	X17	Y17	Z17	X18	Y18	Z18	X19	Y19	Z19	X20	Y20	Z20	X21	Y21	Z21	X22	Y22	Z22	X23	Y23	Z23	X24	Y24	Z24	X25	Y25	Z25	X26	Y26	Z26	X27	Y27	Z27	X28	Y28	Z28	X29	Y29	Z29	X30	Y30	Z30	X31	Y31	Z31	X32	Y32	Z32	X33	Y33	Z33	X34	Y34	Z34	X35	Y35	Z35	X36	Y36	Z36	X37	Y37	Z37	X38	Y38	Z38	X39	Y39	Z39	

114	0.565	-538.4999389648438	1386.136596679688	-558.5155029296875	-502.1545104980469	1400.54638671875	-253.0922698974609	-595.978515625	953.9207153320312	-508.4066772460938	-552.7042236328125	951.7340698242188	-229.0436553955078	-550.9048461914062	903.3477172851562	-483.7609558105469	-914.75927734375	115.0678405761719	-357.26953125	-528.9844360351562	909.62646484375	-249.783447265625	-702.781005859375	838.9481811523438	-504.1950988769531	-671.7506103515625	858.2777709960938	-193.2843322753906	-708.977294921875	968.0769653320312	-359.3034362792969	-615.0887451171875	609.4130249023438	-510.347900390625	-783.5597534179688	292.0871276855469	-448.7710571289062	-689.12451171875	609.1558837890625	-487.1008605957031	-603.2384033203125	513.2606811523438	-482.2115478515625	-842.6122436523438	247.9072265625	-187.1632995605469	-730.6310424804688	372.0574035644531	-472.8468322753906	-680.8286743164062	513.8636474609375	-465.2291564941406	-457.5543518066406	662.534423828125	-189.4980163574219	-669.2313232421875	61.98086547851562	-411.3852233886719	-530.9691162109375	638.0036010742188	-172.723876953125	-424.2192993164062	568.4954223632812	-209.3713073730469	-501.2505798339844	540.977294921875	-185.4700775146484	-631.0042114257812	443.1136474609375	-470.6096496582031	-464.5372009277344	484.3204040527344	-190.7833404541016	-660.146728515625	329.9950561523438	-463.9932250976562	-716.8682250976562	246.8957214355469	-444.018310546875	-548.055908203125	418.007080078125	-190.7676544189453	-742.441162109375	60.89926910400391	-466.8647766113281	-576.341796875	497.6313171386719	-196.4678649902344	-905.65185546875	86.1863784790039	-333.0274963378906	-647.2392578125	389.4365539550781	-208.3163146972656	-666.2771606445312	466.2490234375	-208.6475830078125	-850.6482543945312	130.7346954345703	-421.4267578125	-819.431396484375	386.8963928222656	-225.6534576416016	-819.2940673828125	175.1621856689453	-245.1230316162109	-862.772705078125	430.0592956542969	-282.6814270019531	-887.8882446289062	405.0562438964844	-310.1532287597656	-882.9383544921875	425.448486328125	-254.7334747314453	-919.7105102539062	89.82047271728516	-386.2677307128906
115	0.57	-514.6044921875	1390.714477539062	-557.375244140625	-483.930908203125	1404.570556640625	-252.2821502685547	-573.154296875	956.7847900390624	-508.0140686035156	-532.0170288085938	954.67236328125	-228.7251129150391	-528.8375244140625	905.6296997070312	-483.8445739746094	-912.6659545898438	120.8440551757812	-358.1771545410156	-508.6878662109375	912.5821533203124	-250.052001953125	-681.4952392578125	842.2481079101562	-504.5356140136719	-650.0296630859375	861.3027954101562	-193.3692932128906	-687.1209716796875	970.8607788085938	-360.2015380859375	-601.205322265625	611.1360473632812	-510.1078186035156	-779.2826538085938	296.680908203125	-448.7227172851562	-675.8604736328125	614.149658203125	-487.7322998046875	-593.4857177734375	514.7442016601562	-481.9309692382812	-802.873291015625	239.7353668212891	-186.4348754882812	-726.6271362304688	376.2772827148438	-472.5854187011719	-670.8910522460938	518.0659790039062	-465.3610229492188	-432.9908447265625	669.2894287109375	-190.0767669677734	-668.831787109375	61.83493041992188	-411.2674255371094	-505.8736572265625	643.0972900390625	-174.0517425537109	-397.1808471679688	576.5187377929688	-209.9997711181641	-473.4588928222656	546.6713256835938	-186.5715789794922	-624.6309204101562	445.3467712402344	-469.9384155273438	-434.3960571289062	491.4410400390625	-191.5293273925781	-655.4259643554688	332.7713928222656	-464.0404663085938	-712.73583984375	250.6884307861328	-444.0066833496094	-515.6681518554688	421.0813903808594	-192.0370025634766	-741.96923828125	61.46885681152344	-466.6892395019531	-547.44140625	499.9071044921875	-197.6812591552734	-903.83837890625	91.60682678222656	-334.0899963378906	-614.118896484375	389.2237243652344	-208.822265625	-636.152587890625	465.504150390625	-209.0954284667969	-848.290283203125	135.1870727539062	-421.99462890625	-785.6429443359375	379.9124145507812	-225.2088775634766	-776.2576904296875	167.6359252929688	-244.0355834960938	-831.5419311523438	420.2029113769531	-282.6983947753906	-855.6149291992188	393.9493408203125	-309.4637451171875	-851.5811767578125	414.9042053222656	-254.1723175048828	-917.8291015625	95.29825592041016	-386.9765930175781
116	0.575	-490.8112487792969	1395.55615234375	-556.4386596679688	-465.8409729003906	1408.461059570312	-251.8506011962891	-550.0469360351562	959.3399047851562	-508.6089782714844	-510.3985290527344	957.8323974609376	-229.3064270019531	-506.0853271484375	908.1746826171876	-484.0490417480469	-909.2193603515624	128.6817169189453	-359.658203125	-487.0913391113281	916.1724853515624	-249.9081878662109	-660.0101928710938	845.4378662109375	-504.025634765625	-628.438232421875	865.186279296875	-194.1678619384766	-665.2837524414062	973.9053955078124	-361.26416015625	-587.7817993164062	613.454833984375	-509.7398071289062	-774.5238647460938	302.3304138183594	-449.08544921875	-661.7365112304688	619.1245727539062	-488.4046630859375	-583.813720703125	516.9722900390625	-481.5350952148438	-762.8863525390625	231.3996124267578	-185.5925750732422	-720.7257080078125	381.08837890625	-472.1555480957031	-661.0802612304688	523.1367797851562	-465.2246704101562	-408.8399353027344	676.3898315429688	-190.6946563720703	-668.5339965820312	62.37954711914062	-411.1229248046875	-481.1057739257812	648.3325805664062	-174.9853820800781	-370.5606689453125	584.851806640625	-211.2089233398438	-445.8604736328125	552.8557739257812	-188.0204162597656	-618.4827880859375	448.8695678710938	-469.3025512695312	-405.3990783691406	498.8508605957031	-192.2756652832031	-649.9910278320312	336.9325256347656	-464.0636291503906	-708.5861206054688	255.3594360351562	-444.9194641113281	-484.0805969238281	424.3041381835938	-193.0811614990234	-741.58544921875	62.32144165039062	-466.6794128417969	-519.2200927734375	502.1348266601562	-198.9554901123047	-901.0894165039062	99.27433776855467	-334.9432983398438	-581.2583618164062	388.4284973144531	-209.3055877685547	-606.1702880859375	463.9170227050781	-209.9870758056641	-845.0320434570312	140.1319885253906	-422.374755859375	-752.7529296875	371.610107421875	-225.0331268310547	-733.2545166015625	160.835693359375	-243.0343780517578	-800.06103515625	410.2291564941406	-282.2062683105469	-823.2979736328125	382.928955078125	-309.0074462890625	-819.689208984375	404.1844787597656	-253.83203125	-915.1551513671876	103.2593765258789	-388.3738708496094
117	0.58	-467.05859375	1400.397338867188	-555.2964477539062	-446.9733581542969	1412.915893554688	-251.2811126708984	-527.10498046875	962.3085327148438	-508.0212097167969	-489.1137390136719	961.1049194335938	-229.6864471435547	-483.923095703125	910.6251831054688	-483.8720092773438	-905.2091064453124	136.4759979248047	-361.4786071777344	-465.1379089355469	919.49853515625	-249.8836669921875	-637.7079467773438	848.945556640625	-504.1517333984375	-606.3966674804688	869.1951293945312	-194.3467864990234	-643.4933471679688	976.7507934570312	-362.4580993652344	-573.2612915039062	616.5264892578125	-509.4246215820312	-769.2421875	308.4889831542969	-449.1713256835938	-647.7027587890625	624.64501953125	-488.2104187011719	-573.0286254882812	519.82861328125	-481.3448181152344	-722.3084716796875	223.2470397949219	-184.1991882324219	-714.1055908203125	387.4513549804688	-472.3773193359375	-650.4782104492188	528.5353393554688	-465.4293823242188	-384.6889038085938	683.2070922851562	-191.2430572509766	-668.2455444335938	62.2388801574707	-411.01171875	-456.3182678222656	653.3857421875	-175.9725036621094	-344.1190185546875	593.0389404296875	-212.1086273193359	-418.9372863769531	558.8133544921875	-189.4976654052734	-611.0965576171875	453.0391845703125	-469.2332458496094	-376.92578125	506.3285217285156	-193.9815063476562	-644.1817016601562	341.4164428710938	-464.3442993164062	-703.6768798828125	260.5633544921875	-445.8782043457031	-453.1096801757812	427.5985412597656	-196.8091125488281	-740.4764404296875	62.86328506469727	-466.9591979980469	-491.0496520996094	504.3544311523438	-200.3964080810547	-898.451171875	107.2770385742188	-336.2143249511719	-548.3023071289062	387.6743469238281	-209.6340637207031	-576.8370361328125	461.7542114257812	-210.3124084472656	-840.8269653320312	146.3044586181641	-423.622314453125	-718.1534423828125	363.0151977539062	-226.8849182128906	-689.367919921875	153.8219757080078	-242.2138061523438	-768.422119140625	399.3519897460938	-281.8118896484375	-790.56201171875	371.0675964355469	-308.8450622558594	-787.9500122070312	392.5169982910156	-253.5135345458984	-911.5250854492188	111.5883483886719	-388.7042541503906
